<svg xmlns:mydata="http://www.w3.org/2000/svg" mydata:contrastcolor="280f50" mydata:template="Contrast"
  mydata:presentation="2.5" mydata:layouttype="undefined" mydata:specialfontid="undefined" mydata:id1="004"
  mydata:id2="000" mydata:companyname="SEAK" mydata:companytagline="Stock Exchange Application using Kafka"
  version="1.1" xmlns="http://www.w3.org/2000/svg" xmlns:xlink="http://www.w3.org/1999/xlink" viewBox="295 200 200 52">
  <defs>
    <linearGradient x1="300" y1="234.99979" x2="485" y2="234.99979" gradientUnits="userSpaceOnUse"
      id="color-1753925825">
      <stop offset="0" stop-color="#7b4397"></stop>
      <stop offset="1" stop-color="#dc2430"></stop>
    </linearGradient>
  </defs>
  <g fill="url(#color-1753925825)" fill-rule="none" stroke="none" stroke-width="1" stroke-linecap="butt"
    stroke-linejoin="miter" stroke-miterlimit="10" stroke-dasharray="" stroke-dashoffset="0" font-family="none"
    font-weight="none" font-size="none" text-anchor="none" style="mix-blend-mode: normal">
    <g
      data-paper-data="{&quot;isGlobalGroup&quot;:true,&quot;bounds&quot;:{&quot;x&quot;:65.00000000000003,&quot;y&quot;:198.03013892644347,&quot;width&quot;:420,&quot;height&quot;:73.93930777014324}}">
      <g data-paper-data="{&quot;isPrimaryText&quot;:true}" fill-rule="nonzero" id="element-id-34601">
        <path
          d="M329.84314,221.98184c-2.93047,-1.17219 -13.69995,-2.78395 -13.69995,-7.25291c0,-3.29678 4.0294,-4.24918 6.44704,-4.24918c2.19785,0 4.83528,0.65936 6.22725,1.97807c0.87914,0.87914 1.24545,1.46524 1.5385,2.19785c0.36631,0.9524 0.58609,1.97807 1.97807,1.97807h7.17965c1.68502,0 2.12459,-0.29305 2.12459,-2.05133c0,-9.67055 -10.18338,-13.91973 -19.48763,-13.91973c-9.15772,0.36631 -17.80261,5.05506 -17.80261,14.57909c0,9.30424 6.81334,12.23471 14.21278,14.57909c6.22725,1.97807 12.74755,2.05133 12.74755,6.15399c0,4.10266 -3.22352,4.9818 -7.17965,4.9818c-2.71069,0 -5.71442,-0.65936 -7.17965,-2.41764c-0.9524,-1.09893 -1.31871,-2.05133 -1.39197,-3.00373c-0.14652,-1.83154 -0.9524,-2.05133 -2.63742,-2.05133h-7.10639c-1.68502,0 -2.12459,0.36631 -2.12459,2.05133c0,10.25665 10.54969,15.53149 19.70741,15.53149c11.28231,0 19.48763,-4.9818 19.48763,-15.38497c0,-9.9636 -7.76575,-12.08819 -13.04059,-13.69995z"
          data-paper-data="{&quot;glyphName&quot;:&quot;S&quot;,&quot;glyphIndex&quot;:0,&quot;firstGlyphOfWord&quot;:true,&quot;word&quot;:1}"
          id="element-id-38310"></path>
        <path
          d="M384.34989,239.78445h-32.3817c-1.31871,0 -2.12459,0.43957 -2.12459,2.12459v6.00746c0,1.68502 0.80588,2.12459 2.12459,2.12459h32.3817c1.31871,0 2.12459,-0.43957 2.12459,-2.12459v-6.00746c0,-1.68502 -0.80588,-2.12459 -2.12459,-2.12459zM380.6868,220.73639h-25.05552c-1.31871,0 -2.12459,0.43957 -2.12459,2.12459v6.00746c0,1.68502 0.80588,2.12459 2.12459,2.12459h25.05552c1.31871,0 2.12459,-0.43957 2.12459,-2.12459v-6.00746c0,-1.68502 -0.80588,-2.12459 -2.12459,-2.12459zM384.34989,201.83486h-32.3817c-1.31871,0 -2.12459,0.43957 -2.12459,2.12459v6.00746c0,1.68502 0.80588,2.12459 2.12459,2.12459h32.3817c1.31871,0 2.12459,-0.43957 2.12459,-2.12459v-6.00746c0,-1.68502 -0.80588,-2.12459 -2.12459,-2.12459z"
          data-paper-data="{&quot;glyphName&quot;:&quot;ξ&quot;,&quot;glyphIndex&quot;:1,&quot;word&quot;:1}"
          id="element-id-58776"></path>
        <path
          d="M414.09417,216.56047l10.69622,31.20951c0.58609,1.75828 1.17219,2.19785 2.78395,2.19785h8.35184c1.61176,0 1.61176,-1.17219 1.24545,-2.05133l-16.19085,-43.8838c-0.65936,-1.5385 -1.39197,-2.27111 -3.00373,-2.27111h-7.03313c-1.61176,0 -2.41764,0.73262 -3.00373,2.27111l-16.26411,43.8838c-0.36631,0.87914 -0.36631,2.05133 1.24545,2.05133h7.98553c1.61176,0 2.19785,-0.43957 2.78395,-2.19785z"
          data-paper-data="{&quot;glyphName&quot;:&quot;Λ&quot;,&quot;glyphIndex&quot;:2,&quot;word&quot;:1}"
          id="element-id-65190"></path>
        <path
          d="M483.83936,201.76159h-9.89034c-1.68502,0 -2.19785,0.14652 -3.66309,1.75828l-15.16518,16.70368v-16.33737c0,-1.68502 -0.80588,-2.12459 -2.05133,-2.12459h-7.25291c-1.39197,0 -2.12459,0.43957 -2.12459,2.12459v43.95706c0,1.68502 0.73262,2.12459 2.12459,2.12459h7.25291c1.24545,0 2.05133,-0.43957 2.05133,-2.12459v-13.04059l4.54223,-4.76201c3.95614,6.59356 10.47643,17.58282 10.47643,17.58282c0.9524,1.5385 1.90481,2.34438 3.66309,2.34438h8.93793c1.39197,0 1.68502,-1.39197 1.09893,-2.34438l-15.75128,-25.93466l16.4839,-17.87587c0.65936,-0.65936 0.65936,-2.05133 -0.73262,-2.05133z"
          data-paper-data="{&quot;glyphName&quot;:&quot;K&quot;,&quot;glyphIndex&quot;:3,&quot;lastGlyphOfWord&quot;:true,&quot;word&quot;:1}"
          id="element-id-22309"></path>
      </g>
    </g>
  </g>
</svg>
